<mxfile host="app.diagrams.net" modified="2020-08-03T22:16:28.853Z" agent="5.0 (Windows NT 10.0; Win64; x64) AppleWebKit/537.36 (KHTML, like Gecko) Chrome/84.0.4147.105 Safari/537.36" etag="JGmly8dNFEdJU7pTGhLH" version="13.5.9" type="github">
  <diagram id="HYj8BkaEWrp7-KbeSlYm" name="Page-1">
    <mxGraphModel dx="1102" dy="582" grid="1" gridSize="10" guides="1" tooltips="1" connect="1" arrows="1" fold="1" page="1" pageScale="1" pageWidth="827" pageHeight="1169" background="none" math="0" shadow="0">
      <root>
        <mxCell id="0" />
        <mxCell id="1" parent="0" />
        <mxCell id="rrrTUp1Cnh0Fj5vC30wS-53" value="" style="edgeStyle=entityRelationEdgeStyle;fontSize=12;html=1;endArrow=ERone;strokeColor=#000000;fillColor=#21C0A5;entryX=0;entryY=0.5;entryDx=0;entryDy=0;exitX=1;exitY=0.25;exitDx=0;exitDy=0;startArrow=ERmany;startFill=0;endFill=0;" edge="1" parent="1" source="rrrTUp1Cnh0Fj5vC30wS-32" target="rrrTUp1Cnh0Fj5vC30wS-33">
          <mxGeometry width="100" height="100" relative="1" as="geometry">
            <mxPoint x="390" y="100" as="sourcePoint" />
            <mxPoint x="490" as="targetPoint" />
          </mxGeometry>
        </mxCell>
        <mxCell id="rrrTUp1Cnh0Fj5vC30wS-56" value="" style="fontSize=12;html=1;endArrow=ERone;strokeColor=#000000;fillColor=#21C0A5;entryX=0;entryY=0.5;entryDx=0;entryDy=0;exitX=0.995;exitY=0.658;exitDx=0;exitDy=0;endFill=0;startArrow=ERmany;startFill=0;edgeStyle=entityRelationEdgeStyle;elbow=vertical;exitPerimeter=0;" edge="1" parent="1" source="rrrTUp1Cnh0Fj5vC30wS-32" target="rrrTUp1Cnh0Fj5vC30wS-54">
          <mxGeometry width="100" height="100" relative="1" as="geometry">
            <mxPoint x="360" y="330" as="sourcePoint" />
            <mxPoint x="460" y="230" as="targetPoint" />
          </mxGeometry>
        </mxCell>
        <mxCell id="rrrTUp1Cnh0Fj5vC30wS-31" value="products" style="swimlane;childLayout=stackLayout;horizontal=1;startSize=30;horizontalStack=0;rounded=1;fontSize=14;fontStyle=0;strokeWidth=2;resizeParent=0;resizeLast=1;shadow=0;dashed=0;align=center;fillColor=#21C0A5;strokeColor=#006658;fontColor=#5C5C5C;" vertex="1" parent="1">
          <mxGeometry x="310" y="170" width="201" height="150" as="geometry" />
        </mxCell>
        <mxCell id="rrrTUp1Cnh0Fj5vC30wS-32" value="+id&#xa;+name&#xa;+detail&#xa;+fkcategory&#xa;+fkbest&#xa;+fkprice&#xa;+fkimage" style="align=left;strokeColor=none;fillColor=none;spacingLeft=4;fontSize=12;verticalAlign=top;resizable=0;rotatable=0;part=1;fontColor=#5C5C5C;" vertex="1" parent="rrrTUp1Cnh0Fj5vC30wS-31">
          <mxGeometry y="30" width="201" height="120" as="geometry" />
        </mxCell>
        <mxCell id="rrrTUp1Cnh0Fj5vC30wS-33" value="category" style="swimlane;childLayout=stackLayout;horizontal=1;startSize=30;horizontalStack=0;rounded=1;fontSize=14;fontStyle=0;strokeWidth=2;resizeParent=0;resizeLast=1;shadow=0;dashed=0;align=center;fillColor=#21C0A5;strokeColor=#006658;fontColor=#5C5C5C;swimlaneLine=1;" vertex="1" parent="1">
          <mxGeometry x="650" y="80" width="110" height="70" as="geometry" />
        </mxCell>
        <mxCell id="rrrTUp1Cnh0Fj5vC30wS-34" value="+id&#xa;+name" style="align=left;strokeColor=none;fillColor=none;spacingLeft=4;fontSize=12;verticalAlign=top;resizable=0;rotatable=0;part=1;fontColor=#5C5C5C;" vertex="1" parent="rrrTUp1Cnh0Fj5vC30wS-33">
          <mxGeometry y="30" width="110" height="40" as="geometry" />
        </mxCell>
        <mxCell id="rrrTUp1Cnh0Fj5vC30wS-54" value="best" style="swimlane;childLayout=stackLayout;horizontal=1;startSize=30;horizontalStack=0;rounded=1;fontSize=14;fontStyle=0;strokeWidth=2;resizeParent=0;resizeLast=1;shadow=0;dashed=0;align=center;sketch=0;fillColor=#21C0A5;" vertex="1" parent="1">
          <mxGeometry x="660" y="360" width="90" height="70" as="geometry" />
        </mxCell>
        <mxCell id="rrrTUp1Cnh0Fj5vC30wS-55" value="+id&#xa;+best" style="align=left;strokeColor=none;fillColor=none;spacingLeft=4;fontSize=12;verticalAlign=top;resizable=0;rotatable=0;part=1;" vertex="1" parent="rrrTUp1Cnh0Fj5vC30wS-54">
          <mxGeometry y="30" width="90" height="40" as="geometry" />
        </mxCell>
        <mxCell id="rrrTUp1Cnh0Fj5vC30wS-62" style="edgeStyle=entityRelationEdgeStyle;rounded=1;sketch=0;orthogonalLoop=1;jettySize=auto;html=1;entryX=0;entryY=0.25;entryDx=0;entryDy=0;startArrow=ERmany;startFill=0;endArrow=ERone;endFill=0;strokeColor=#000000;fillColor=#21C0A5;fontColor=#5C5C5C;" edge="1" parent="1" source="rrrTUp1Cnh0Fj5vC30wS-59" target="rrrTUp1Cnh0Fj5vC30wS-32">
          <mxGeometry relative="1" as="geometry" />
        </mxCell>
        <mxCell id="rrrTUp1Cnh0Fj5vC30wS-65" style="edgeStyle=entityRelationEdgeStyle;rounded=1;sketch=0;orthogonalLoop=1;jettySize=auto;html=1;entryX=0;entryY=0.75;entryDx=0;entryDy=0;startArrow=ERmany;startFill=0;endArrow=ERone;endFill=0;strokeColor=#000000;fillColor=#21C0A5;fontColor=#5C5C5C;" edge="1" parent="1" source="rrrTUp1Cnh0Fj5vC30wS-63" target="rrrTUp1Cnh0Fj5vC30wS-32">
          <mxGeometry relative="1" as="geometry" />
        </mxCell>
        <mxCell id="rrrTUp1Cnh0Fj5vC30wS-63" value="image" style="swimlane;childLayout=stackLayout;horizontal=1;startSize=30;horizontalStack=0;rounded=1;fontSize=14;fontStyle=0;strokeWidth=2;resizeParent=0;resizeLast=1;shadow=0;dashed=0;align=center;sketch=0;fillColor=#21C0A5;" vertex="1" parent="1">
          <mxGeometry x="90" y="330" width="110" height="70" as="geometry" />
        </mxCell>
        <mxCell id="rrrTUp1Cnh0Fj5vC30wS-64" value="+id&#xa;+image" style="align=left;strokeColor=none;fillColor=none;spacingLeft=4;fontSize=12;verticalAlign=top;resizable=0;rotatable=0;part=1;" vertex="1" parent="rrrTUp1Cnh0Fj5vC30wS-63">
          <mxGeometry y="30" width="110" height="40" as="geometry" />
        </mxCell>
        <mxCell id="rrrTUp1Cnh0Fj5vC30wS-59" value="price" style="swimlane;childLayout=stackLayout;horizontal=1;startSize=30;horizontalStack=0;rounded=1;fontSize=14;fontStyle=0;strokeWidth=2;resizeParent=0;resizeLast=1;shadow=0;dashed=0;align=center;sketch=0;fillColor=#21C0A5;" vertex="1" parent="1">
          <mxGeometry x="65" y="80" width="160" height="120" as="geometry" />
        </mxCell>
        <mxCell id="rrrTUp1Cnh0Fj5vC30wS-60" value="+id&#xa;+cost&#xa;+utility&#xa;+price" style="align=left;strokeColor=none;fillColor=none;spacingLeft=4;fontSize=12;verticalAlign=top;resizable=0;rotatable=0;part=1;" vertex="1" parent="rrrTUp1Cnh0Fj5vC30wS-59">
          <mxGeometry y="30" width="160" height="90" as="geometry" />
        </mxCell>
      </root>
    </mxGraphModel>
  </diagram>
</mxfile>
